<svg xmlns="http://www.w3.org/2000/svg" width="163" height="70" fill="none" viewBox="0 0 163 70">
  <g clip-path="url(#a)">
    <path fill="url(#b)" d="M90.116 34.97a48.678 48.678 0 0 0-18.11-.219c-.032 2.338.028 14.57 9.786 24.635 9.835 10.144 22.237 10.561 24.552 10.598 2.182.083 14.751.357 25.016-9.462 10.453-10 10.665-23.17 10.641-25.314-3.204-.297-7.257-.058-11.667.376a60.604 60.604 0 0 0-9.84 1.796c-17.588-.547-25.98-1.558-30.378-2.41Z"/>
    <path fill="#507F9E" d="M141.993 35.204c-.068-2.378-.709-16.579-12.542-26.685C120.765 1.102 111.067.17 107.784 0c-2.56-.012-14.568.203-24.617 9.64-10.61 9.957-11.115 22.758-11.165 25.111a57.289 57.289 0 0 1 9.357-.402c2.906.12 5.8.454 8.656 1 12.126 2.152 20.971 3.724 30.479 2.03 3.133-.557 4.555-1.152 8.969-1.703a72.076 72.076 0 0 1 12.53-.472Z"/>
    <path fill="url(#c)" d="m116.685 31.477-11.498-7.668a46.046 46.046 0 0 0-5.907-.351c-3.464.016-9.148.061-15.423 2.776a34.368 34.368 0 0 0-11.855 8.517 57.331 57.331 0 0 1 18.013.597l3.76 9.58 8.497 5.309 11.813-2.659 4.084-7.43-1.484-8.67Z"/>
    <path fill="#A89F91" d="M117.474 59.018c1.13 0 2.046-.913 2.046-2.039a2.042 2.042 0 0 0-2.046-2.038c-1.13 0-2.046.912-2.046 2.038s.916 2.039 2.046 2.039Zm-12.568 3.865c1.23 0 2.226-.993 2.226-2.218a2.222 2.222 0 0 0-2.226-2.218c-1.23 0-2.227.993-2.227 2.218s.997 2.218 2.227 2.218Z"/>
    <path fill="#A89F91" d="M119.461 16.02v-4.298a65.298 65.298 0 0 0-4.597-1.183c-2.027-.438-6.956-1.418-11.191-.877-.922.12-2.111.349-3.371 1.075a8.207 8.207 0 0 0-1.747 1.354c-.292.239-2.283 1.923-2.331 4.757-.055 3.19 2.398 5.039 2.63 5.206.422.305.977.76 1.83 1.375.632.456 1.382.98 2.247 1.546 2.384 1.56 4.045 2.41 6.236 3.76 2.45 1.512 3.673 2.268 4.296 2.892.415.418 4.288 4.429 3.22 9.399-.495 2.3-1.838 3.805-2.258 4.264a9.755 9.755 0 0 1-4.386 2.746 13.544 13.544 0 0 1-14.014-2.366c.33.087 4.178 1.036 7.175-1.59 2.169-1.9 2.473-4.443 2.529-5.054.007-.607-.034-3.079-1.923-5.186-2.365-2.641-5.687-2.545-6.139-2.52-.32-.05-3.894-.547-6.467 2.154-2.246 2.356-1.993 5.325-1.948 5.764a14.898 14.898 0 0 0 3.336 7.82 14.987 14.987 0 0 0 7.08 4.74 19.69 19.69 0 0 0 6.613.808l-1.064 6.777 1.724.605 1.272-7.676c.88-.099 6.255-.788 9.751-5.609 2.887-3.978 2.639-8.209 2.529-9.328a12.92 12.92 0 0 0-1.953-5.45 12.997 12.997 0 0 0-4.14-4.058l-12.865-8.224a9.092 9.092 0 0 1 1.19-1.078c1.5-1.135 2.969-1.509 3.776-1.713 2.128-.54 6.806-1.003 12.96-.832Z"/>
    <path fill="#855B9A" d="M118.737 12.66c-1.175.02-2.774.05-4.671.094 0 0-6.328.146-10.594 1.3a5.222 5.222 0 0 0-1.776.858c-.51.384-1.373 1.027-1.507 2.057a2.727 2.727 0 0 0 1.349 2.674 14.927 14.927 0 0 1 3.519-2.16c.908-.396 2.536-.995 7.126-1.328 1.378-.1 2.726-.274 4.534-.313.836-.019 1.546 0 2.07.015"/>
    <path fill="#507F9E" d="M97.605 42.445c2.579 0 4.669-1.723 4.669-3.849 0-2.126-2.09-3.85-4.67-3.85-2.579 0-4.67 1.724-4.67 3.85 0 2.126 2.091 3.85 4.67 3.85Z"/>
  </g>
  <path fill="#855B9A" d="M14.97 42.28H7.11L5.85 46H.48L8.1 24.94h5.94L21.66 46h-5.43l-1.26-3.72Zm-1.32-3.96-2.61-7.71-2.58 7.71h5.19ZM34.72 46l-4.38-7.95h-1.23V46h-5.13V24.94h8.61c1.66 0 3.07.29 4.23.87 1.18.58 2.06 1.38 2.64 2.4.58 1 .87 2.12.87 3.36 0 1.4-.4 2.65-1.2 3.75-.78 1.1-1.94 1.88-3.48 2.34L40.51 46h-5.79Zm-5.61-11.58h3.18c.94 0 1.64-.23 2.1-.69.48-.46.72-1.11.72-1.95 0-.8-.24-1.43-.72-1.89-.46-.46-1.16-.69-2.1-.69h-3.18v5.22Zm29.59-9.48v4.11h-5.58V46h-5.13V29.05h-5.58v-4.11H58.7Zm7.704 0V46h-5.13V24.94h5.13Zm95.606-1v4.11h-5.58V45h-5.13V28.05h-5.58v-4.11h16.29Z"/>
  <defs>
    <linearGradient id="b" x1="72" x2="141.994" y1="52.003" y2="52.003" gradientUnits="userSpaceOnUse">
      <stop stop-color="#855B9A"/>
      <stop offset="1" stop-color="#6B6D9C"/>
    </linearGradient>
    <linearGradient id="c" x1="72.002" x2="118.165" y1="36.845" y2="36.845" gradientUnits="userSpaceOnUse">
      <stop stop-color="#855B9A"/>
      <stop offset=".47" stop-color="#7C629B"/>
      <stop offset="1" stop-color="#6B6D9C"/>
    </linearGradient>
    <clipPath id="a">
      <path fill="#fff" d="M72 0h70v70H72z"/>
    </clipPath>
  </defs>
</svg>
