<svg xmlns="http://www.w3.org/2000/svg" width="119" height="51" fill="none" viewBox="0 0 119 51">
  <g clip-path="url(#a)">
    <path fill="url(#b)" d="M12.941 25.074a34.648 34.648 0 0 0-12.936-.157c-.024 1.676.02 10.446 6.99 17.663 7.025 7.274 15.885 7.573 17.539 7.6 1.558.059 10.537.255 17.87-6.785 7.466-7.17 7.618-16.612 7.6-18.15-2.288-.213-5.183-.042-8.333.27a43.175 43.175 0 0 0-7.03 1.287c-12.563-.392-18.558-1.117-21.7-1.728Z"/>
    <path fill="#507F9E" d="M50 25.241c-.05-1.705-.507-11.887-8.96-19.133C34.835.79 27.907.123 25.562 0 23.733-.009 15.156.145 7.977 6.912.397 14.05.037 23.23.002 24.917a40.76 40.76 0 0 1 6.683-.288c2.076.086 4.143.325 6.184.716 8.662 1.544 14.98 2.67 21.772 1.456 2.239-.4 3.254-.826 6.408-1.22a51.301 51.301 0 0 1 8.95-.34Z"/>
    <path fill="url(#c)" d="m31.92 22.57-8.213-5.498a32.785 32.785 0 0 0-4.22-.252c-2.474.011-6.534.044-11.017 1.99a24.555 24.555 0 0 0-8.468 6.107 40.805 40.805 0 0 1 12.867.428l2.686 6.87 6.07 3.805 8.438-1.906 2.918-5.328-1.06-6.216Z"/>
    <path fill="#A89F91" d="M32.481 42.316a1.462 1.462 0 1 0 0-2.923 1.462 1.462 0 0 0 0 2.923Zm-8.977 2.772a1.59 1.59 0 1 0 0-3.181 1.59 1.59 0 0 0 0 3.181Z"/>
    <path fill="#A89F91" d="M33.9 11.487V8.405a46.517 46.517 0 0 0-3.283-.849c-1.448-.314-4.969-1.016-7.993-.628-.66.086-1.508.25-2.408.77a5.866 5.866 0 0 0-1.248.971c-.209.172-1.63 1.38-1.665 3.411-.04 2.287 1.713 3.613 1.88 3.733.3.219.697.545 1.305.986.452.327.988.702 1.606 1.108 1.702 1.12 2.89 1.728 4.454 2.697 1.75 1.084 2.624 1.626 3.068 2.073.297.3 3.063 3.176 2.3 6.739-.354 1.65-1.313 2.729-1.613 3.058a6.964 6.964 0 0 1-3.133 1.969 9.64 9.64 0 0 1-10.01-1.697c.236.062 2.985.743 5.126-1.14 1.549-1.363 1.766-3.186 1.806-3.624.005-.435-.024-2.207-1.373-3.718-1.69-1.894-4.062-1.825-4.385-1.807-.229-.036-2.782-.392-4.62 1.544-1.604 1.69-1.423 3.818-1.39 4.133a10.703 10.703 0 0 0 7.438 9.006c1.53.46 3.128.657 4.725.58-.254 1.619-.508 3.239-.76 4.859l1.231.433.909-5.504c.628-.07 4.467-.565 6.965-4.021 2.061-2.853 1.885-5.886 1.806-6.689a9.291 9.291 0 0 0-4.353-6.817l-9.189-5.897c.26-.282.545-.54.85-.773 1.072-.813 2.121-1.081 2.698-1.228 1.52-.387 4.86-.719 9.257-.596Z"/>
    <path fill="#855B9A" d="M33.383 9.078c-.839.014-1.98.035-3.336.067 0 0-4.52.105-7.567.932a3.72 3.72 0 0 0-1.268.615c-.365.275-.981.736-1.077 1.475a1.956 1.956 0 0 0 .963 1.917 10.649 10.649 0 0 1 2.514-1.549c.649-.283 1.812-.713 5.09-.952.984-.072 1.947-.196 3.238-.224.598-.014 1.105 0 1.48.01"/>
    <path fill="#507F9E" d="M18.29 30.434c1.841 0 3.335-1.236 3.335-2.76 0-1.524-1.494-2.76-3.336-2.76-1.842 0-3.336 1.236-3.336 2.76 0 1.524 1.494 2.76 3.336 2.76Z"/>
  </g>
  <mask id="e" width="86" height="14" x="34" y="20" fill="#000" maskUnits="userSpaceOnUse">
    <path fill="#fff" d="M34 20h86v14H34z"/>
    <path d="m45.96 21.47-3.645 7.05V32H39.75v-3.48l-3.645-7.05h2.91l2.04 4.41 2.025-4.41h2.88Zm12.959 0V32h-2.566v-6.315L53.998 32h-2.07l-2.37-6.33V32h-2.565V21.47h3.03l2.955 7.29 2.925-7.29h3.016Zm9.869 3.39c0 .61-.14 1.17-.42 1.68-.28.5-.71.905-1.29 1.215-.58.31-1.3.465-2.16.465h-1.59V32h-2.565V21.47h4.155c.84 0 1.55.145 2.13.435.58.29 1.015.69 1.305 1.2.29.51.435 1.095.435 1.755Zm-4.065 1.32c.49 0 .855-.115 1.095-.345.24-.23.36-.555.36-.975 0-.42-.12-.745-.36-.975-.24-.23-.605-.345-1.095-.345h-1.395v2.64h1.395Zm14.52-4.71V32h-2.565v-4.335h-3.99V32h-2.565V21.47h2.565v4.125h3.99V21.47h2.565Zm6.832 10.635c-.99 0-1.9-.23-2.73-.69a5.246 5.246 0 0 1-1.965-1.92c-.48-.83-.72-1.76-.72-2.79s.24-1.955.72-2.775a5.246 5.246 0 0 1 1.965-1.92c.83-.46 1.74-.69 2.73-.69s1.895.23 2.715.69c.83.46 1.48 1.1 1.95 1.92.48.82.72 1.745.72 2.775 0 1.03-.24 1.96-.72 2.79-.48.82-1.13 1.46-1.95 1.92-.82.46-1.725.69-2.715.69Zm0-2.34c.84 0 1.51-.28 2.01-.84.51-.56.765-1.3.765-2.22 0-.93-.255-1.67-.765-2.22-.5-.56-1.17-.84-2.01-.84-.85 0-1.53.275-2.04.825-.5.55-.75 1.295-.75 2.235 0 .93.25 1.675.75 2.235.51.55 1.19.825 2.04.825ZM102.307 32h-2.565l-4.29-6.495V32h-2.565V21.47h2.565l4.29 6.525V21.47h2.565V32Zm4.424-10.53V32h-2.565V21.47h2.565Zm8.414 8.67h-3.93l-.63 1.86H107.9l3.81-10.53h2.97L118.49 32h-2.715l-.63-1.86Zm-.66-1.98-1.305-3.855-1.29 3.855h2.595Z"/>
  </mask>
  <path fill="url(#d)" d="m45.96 21.47-3.645 7.05V32H39.75v-3.48l-3.645-7.05h2.91l2.04 4.41 2.025-4.41h2.88Zm12.959 0V32h-2.566v-6.315L53.998 32h-2.07l-2.37-6.33V32h-2.565V21.47h3.03l2.955 7.29 2.925-7.29h3.016Zm9.869 3.39c0 .61-.14 1.17-.42 1.68-.28.5-.71.905-1.29 1.215-.58.31-1.3.465-2.16.465h-1.59V32h-2.565V21.47h4.155c.84 0 1.55.145 2.13.435.58.29 1.015.69 1.305 1.2.29.51.435 1.095.435 1.755Zm-4.065 1.32c.49 0 .855-.115 1.095-.345.24-.23.36-.555.36-.975 0-.42-.12-.745-.36-.975-.24-.23-.605-.345-1.095-.345h-1.395v2.64h1.395Zm14.52-4.71V32h-2.565v-4.335h-3.99V32h-2.565V21.47h2.565v4.125h3.99V21.47h2.565Zm6.832 10.635c-.99 0-1.9-.23-2.73-.69a5.246 5.246 0 0 1-1.965-1.92c-.48-.83-.72-1.76-.72-2.79s.24-1.955.72-2.775a5.246 5.246 0 0 1 1.965-1.92c.83-.46 1.74-.69 2.73-.69s1.895.23 2.715.69c.83.46 1.48 1.1 1.95 1.92.48.82.72 1.745.72 2.775 0 1.03-.24 1.96-.72 2.79-.48.82-1.13 1.46-1.95 1.92-.82.46-1.725.69-2.715.69Zm0-2.34c.84 0 1.51-.28 2.01-.84.51-.56.765-1.3.765-2.22 0-.93-.255-1.67-.765-2.22-.5-.56-1.17-.84-2.01-.84-.85 0-1.53.275-2.04.825-.5.55-.75 1.295-.75 2.235 0 .93.25 1.675.75 2.235.51.55 1.19.825 2.04.825ZM102.307 32h-2.565l-4.29-6.495V32h-2.565V21.47h2.565l4.29 6.525V21.47h2.565V32Zm4.424-10.53V32h-2.565V21.47h2.565Zm8.414 8.67h-3.93l-.63 1.86H107.9l3.81-10.53h2.97L118.49 32h-2.715l-.63-1.86Zm-.66-1.98-1.305-3.855-1.29 3.855h2.595Z"/>
  <path fill="#1C1B1B" d="m45.96 21.47.888.46.755-1.46H45.96v1Zm-3.645 7.05-.888-.46-.112.217v.243h1Zm0 3.48v1h1v-1h-1Zm-2.565 0h-1v1h1v-1Zm0-3.48h1v-.243l-.112-.216-.888.459Zm-3.645-7.05v-1h-1.643l.755 1.46.888-.46Zm2.91 0 .908-.42-.269-.58h-.639v1Zm2.04 4.41-.908.42.911 1.97.906-1.973-.909-.417Zm2.025-4.41v-1h-.641l-.268.583.909.417Zm1.992-.46-3.645 7.05 1.776.92 3.645-7.05-1.776-.92Zm-3.757 7.51V32h2v-3.48h-2Zm1 2.48H39.75v2h2.565v-2Zm-1.565 1v-3.48h-2V32h2Zm-.112-3.94-3.645-7.05-1.776.92 3.645 7.05 1.776-.92Zm-4.533-5.59h2.91v-2h-2.91v2Zm2.002-.58 2.04 4.41 1.816-.84-2.04-4.41-1.816.84Zm3.857 4.407 2.025-4.41-1.818-.834-2.025 4.41 1.818.834Zm1.116-3.827h2.88v-2h-2.88v2Zm15.839-1h1v-1h-1v1Zm0 10.53v1h1v-1h-1Zm-2.566 0h-1v1h1v-1Zm0-6.315h1l-1.937-.35.938.35ZM53.998 32v1h.695l.242-.65-.937-.35Zm-2.07 0-.936.35.243.65h.694v-1Zm-2.37-6.33.937-.35-1.936.35h1Zm0 6.33v1h1v-1h-1Zm-2.565 0h-1v1h1v-1Zm0-10.53v-1h-1v1h1Zm3.03 0 .927-.376-.253-.624h-.674v1Zm2.955 7.29-.926.376.931 2.298.924-2.302-.928-.372Zm2.925-7.29v-1h-.676l-.252.628.928.372Zm2.016 0V32h2V21.47h-2Zm1 9.53h-2.566v2h2.566v-2Zm-1.566 1v-6.315h-2V32h2Zm-1.937-6.664-2.354 6.315 1.873.698 2.355-6.315-1.873-.698ZM54 31h-2.07v2H54v-2Zm-1.134.65-2.37-6.33-1.873.7 2.37 6.33 1.873-.7Zm-4.306-5.98V32h2v-6.33h-2Zm1 5.33h-2.566v2h2.566v-2Zm-1.566 1V21.47h-2V32h2Zm-1-9.53h3.03v-2h-3.03v2Zm2.104-.624 2.955 7.29 1.853-.752-2.955-7.29-1.853.752Zm4.81 7.286 2.925-7.29-1.857-.744-2.925 7.29 1.857.744Zm1.997-6.662h3.014v-2h-3.014v2Zm12.464 4.07.873.489.004-.008-.877-.481Zm-1.29 1.215-.471-.882.471.882Zm-3.75.465v-1h-1v1h1Zm0 3.78v1h1v-1h-1Zm-2.565 0h-1v1h1v-1Zm0-10.53v-1h-1v1h1Zm6.285.435.447-.894-.447.894Zm-1.23 1.98-.692.722.692-.722Zm-2.49-.345v-1h-1v1h1Zm0 2.64h-1v1h1v-1Zm4.46-1.32c0 .45-.102.843-.297 1.199l1.754.962a4.434 4.434 0 0 0 .543-2.161h-2Zm-.292 1.191c-.174.31-.452.589-.89.822l.943 1.764c.723-.387 1.305-.918 1.691-1.608l-1.744-.978Zm-.89.822c-.397.212-.944.347-1.688.347v2c.975 0 1.869-.175 2.631-.583l-.942-1.764Zm-1.688.347h-1.59v2h1.59v-2Zm-2.59 1V32h2v-3.78h-2Zm1 2.78h-2.565v2h2.565v-2Zm-1.565 1V21.47h-2V32h2Zm-1-9.53h4.155v-2h-4.155v2Zm4.155 0c.729 0 1.276.126 1.683.33l.894-1.79c-.753-.376-1.626-.54-2.577-.54v2Zm1.683.33c.422.21.7.48.883.8l1.738-.99c-.398-.7-.989-1.23-1.727-1.6l-.894 1.79Zm.883.8c.194.34.304.751.304 1.26h2c0-.811-.18-1.57-.566-2.25l-1.738.99Zm-2.761 3.58c.627 0 1.289-.146 1.787-.623l-1.384-1.444c.018-.017-.05.067-.403.067v2Zm1.787-.623c.486-.465.668-1.08.668-1.697h-2a.628.628 0 0 1-.028.212.093.093 0 0 1-.024.041l1.384 1.444Zm.668-1.697c0-.616-.182-1.232-.668-1.697l-1.384 1.444a.093.093 0 0 1 .024.04.651.651 0 0 1 .028.213h2Zm-.668-1.697c-.498-.477-1.16-.623-1.787-.623v2c.353 0 .421.084.403.067l1.384-1.444Zm-1.787-.623h-1.395v2h1.395v-2Zm-2.395 1v2.64h2v-2.64h-2Zm1 3.64h1.395v-2h-1.395v2Zm15.915-5.71h1v-1h-1v1Zm0 10.53v1h1v-1h-1Zm-2.565 0h-1v1h1v-1Zm0-4.335h1v-1h-1v1Zm-3.99 0v-1h-1v1h1Zm0 4.335v1h1v-1h-1Zm-2.565 0h-1v1h1v-1Zm0-10.53v-1h-1v1h1Zm2.565 0h1v-1h-1v1Zm0 4.125h-1v1h1v-1Zm3.99 0v1h1v-1h-1Zm0-4.125v-1h-1v1h1Zm1.565 0V32h2V21.47h-2Zm1 9.53h-2.565v2h2.565v-2Zm-1.565 1v-4.335h-2V32h2Zm-1-5.335h-3.99v2h3.99v-2Zm-4.99 1V32h2v-4.335h-2Zm1 3.335h-2.565v2h2.565v-2Zm-1.565 1V21.47h-2V32h2Zm-1-9.53h2.565v-2h-2.565v2Zm1.565-1v4.125h2V21.47h-2Zm1 5.125h3.99v-2h-3.99v2Zm4.99-1V21.47h-2v4.125h2Zm-1-3.125h2.565v-2h-2.565v2Zm6.667 8.945-.49.872.005.003.485-.875Zm-1.965-1.92-.866.5.004.007.004.006.858-.513Zm0-5.565-.858-.513-.005.008.863.505Zm1.965-1.92-.485-.875-.004.003.489.872Zm5.445 0-.49.872.005.003.485-.875Zm1.95 1.92-.868.497.005.008.863-.505Zm0 5.565.863.505.003-.004-.866-.501Zm-1.95 1.92.49.872-.49-.872Zm-.705-2.49-.74-.673-.006.007.746.666Zm0-4.44-.746.666.006.007.007.007.733-.68Zm-4.05-.015-.733-.68-.007.007.74.673Zm0 4.47-.746.666.006.007.007.007.733-.68Zm2.04 2.165c-.828 0-1.57-.19-2.245-.565l-.97 1.75a6.538 6.538 0 0 0 3.215.815v-2Zm-2.24-.562a4.246 4.246 0 0 1-1.596-1.561l-1.717 1.026a6.245 6.245 0 0 0 2.334 2.28l.978-1.745Zm-1.59-1.549c-.385-.666-.585-1.421-.585-2.289h-2c0 1.192.28 2.297.854 3.29l1.732-1Zm-.585-2.289c0-.868.2-1.616.583-2.27l-1.726-1.01c-.577.986-.857 2.088-.857 3.28h2Zm.579-2.262a4.246 4.246 0 0 1 1.595-1.56l-.978-1.745a6.245 6.245 0 0 0-2.334 2.279l1.716 1.026Zm1.59-1.558a4.538 4.538 0 0 1 2.246-.565v-2c-1.152 0-2.23.27-3.215.815l.97 1.75Zm2.246-.565c.828 0 1.563.19 2.226.562l.978-1.744a6.452 6.452 0 0 0-3.204-.818v2Zm2.23.565a3.998 3.998 0 0 1 1.567 1.542l1.736-.994a5.999 5.999 0 0 0-2.333-2.298l-.97 1.75Zm1.572 1.55c.383.654.583 1.402.583 2.27h2c0-1.192-.28-2.294-.857-3.28l-1.726 1.01Zm.583 2.27c0 .868-.2 1.623-.586 2.29l1.732 1c.574-.993.854-2.098.854-3.29h-2Zm-.583 2.285a4.135 4.135 0 0 1-1.576 1.553l.978 1.744A6.135 6.135 0 0 0 91.603 30l-1.726-1.01Zm-1.576 1.553a4.456 4.456 0 0 1-2.226.562v2c1.152 0 2.227-.27 3.204-.818l-.978-1.744Zm-2.226.222c1.087 0 2.043-.375 2.756-1.174l-1.492-1.332c-.286.32-.671.506-1.264.506v2Zm2.75-1.167c.711-.781 1.025-1.78 1.025-2.893h-2c0 .727-.196 1.209-.504 1.547l1.478 1.346Zm1.025-2.893c0-1.119-.311-2.123-1.032-2.9l-1.466 1.36c.3.323.498.799.498 1.54h2Zm-1.019-2.886c-.713-.8-1.669-1.174-2.756-1.174v2c.593 0 .978.185 1.264.506l1.492-1.332Zm-2.756-1.174c-1.087 0-2.048.363-2.773 1.145l1.466 1.36c.295-.318.695-.505 1.307-.505v-2Zm-2.78 1.152c-.708.78-1.01 1.787-1.01 2.908h2c0-.76.198-1.241.49-1.562l-1.48-1.346Zm-1.01 2.908c0 1.115.304 2.117 1.004 2.901l1.492-1.332c-.3-.336-.496-.824-.496-1.569h-2Zm1.017 2.915c.725.782 1.686 1.145 2.773 1.145v-2c-.612 0-1.012-.187-1.307-.505l-1.466 1.36ZM102.307 32v1h1v-1h-1Zm-2.565 0-.834.551.296.449h.538v-1Zm-4.29-6.495.834-.551-1.834-2.777v3.328h1Zm0 6.495v1h1v-1h-1Zm-2.565 0h-1v1h1v-1Zm0-10.53v-1h-1v1h1Zm2.565 0 .836-.55-.297-.45h-.539v1Zm4.29 6.525-.836.55 1.836 2.791v-3.341h-1Zm0-6.525v-1h-1v1h1Zm2.565 0h1v-1h-1v1Zm0 9.53h-2.565v2h2.565v-2Zm-1.731.449-4.29-6.495-1.668 1.102 4.29 6.495 1.668-1.102Zm-6.124-5.944V32h2v-6.495h-2Zm1 5.495h-2.565v2h2.565v-2Zm-1.565 1V21.47h-2V32h2Zm-1-9.53h2.565v-2h-2.565v2Zm1.73-.45 4.29 6.524 1.671-1.098-4.29-6.525-1.671 1.098Zm6.125 5.975V21.47h-2v6.525h2Zm-1-5.525h2.565v-2h-2.565v2Zm1.565-1V32h2V21.47h-2Zm5.424 0h1v-1h-1v1Zm0 10.53v1h1v-1h-1Zm-2.565 0h-1v1h1v-1Zm0-10.53v-1h-1v1h1Zm1.565 0V32h2V21.47h-2Zm1 9.53h-2.565v2h2.565v-2Zm-1.565 1V21.47h-2V32h2Zm-1-9.53h2.565v-2h-2.565v2Zm10.979 7.67.947-.32-.23-.68h-.717v1Zm-3.93 0v-1h-.717l-.23.68.947.32Zm-.63 1.86v1h.717l.23-.68-.947-.32Zm-2.685 0-.94-.34-.485 1.34h1.425v-1Zm3.81-10.53v-1h-.701l-.239.66.94.34Zm2.97 0 .94-.34-.238-.66h-.702v1ZM118.49 32v1h1.425l-.485-1.34-.94.34Zm-2.715 0-.947.32.23.68h.717v-1Zm-1.29-3.84v1h1.394l-.447-1.32-.947.32Zm-1.305-3.855.947-.32-.952-2.815-.943 2.818.948.317Zm-1.29 3.855-.948-.317-.441 1.317h1.389v-1Zm3.255.98h-3.93v2h3.93v-2Zm-4.877.68-.63 1.86 1.894.64.63-1.86-1.894-.64Zm.317 1.18H107.9v2h2.685v-2Zm-1.745 1.34 3.81-10.53-1.88-.68-3.81 10.53 1.88.68Zm2.87-9.87h2.97v-2h-2.97v2Zm2.03-.66 3.81 10.53 1.88-.68-3.81-10.53-1.88.68Zm4.75 9.19h-2.715v2h2.715v-2Zm-1.768.68-.63-1.86-1.894.64.63 1.86 1.894-.64Zm-1.29-3.84-1.305-3.856-1.894.642 1.305 3.855 1.894-.642Zm-3.2-3.852-1.29 3.855 1.896.634 1.29-3.855-1.896-.634Zm-.342 5.172h2.595v-2h-2.595v2Z" mask="url(#e)"/>
  <defs>
    <linearGradient id="b" x1="0" x2="50" y1="37.287" y2="37.287" gradientUnits="userSpaceOnUse">
      <stop stop-color="#855B9A"/>
      <stop offset="1" stop-color="#6B6D9C"/>
    </linearGradient>
    <linearGradient id="c" x1=".002" x2="32.978" y1="26.418" y2="26.418" gradientUnits="userSpaceOnUse">
      <stop stop-color="#855B9A"/>
      <stop offset=".47" stop-color="#7C629B"/>
      <stop offset="1" stop-color="#6B6D9C"/>
    </linearGradient>
    <linearGradient id="d" x1="77.5" x2="77.5" y1="15" y2="38" gradientUnits="userSpaceOnUse">
      <stop stop-color="#855B9A"/>
      <stop offset="1" stop-color="#6999B9"/>
    </linearGradient>
    <clipPath id="a">
      <path fill="#fff" d="M0 0h50v50.191H0z"/>
    </clipPath>
  </defs>
</svg>
