<svg xmlns="http://www.w3.org/2000/svg" width="1440" height="1024" fill="none" viewBox="0 0 1440 1024">
  <g filter="url(#a)">
    <path fill="#855B9A" fill-opacity=".58" fill-rule="evenodd" d="M-1294.67 471.461c100.42 56.285 234.67 125.854 359.959 145.103 39.188 6.027 77.432 7.117 113.455 1.381 29.243 3.972 57.9 5.103 85.444 2.591 2.887.498 5.771.968 8.652 1.411 22.27 3.419 44.231 5.25 65.658 5.137 11.164 2.438 22.287 4.53 33.34 6.23 3.276.505 6.548.972 9.809 1.407 94.549 51.172 210.714 106.298 320.056 123.1C-172.759 777.11-56.943 745.795 7.286 601.725 82.106 433.9 21.022 282.058-25.892 165.439c-4.352-10.816-8.582-21.331-12.57-31.526-23.493-60.063-38.332-108.48-21.19-143.19 17.135-34.695 66.466-56.105 173.334-60.67l-4.069-5.781C2.253-71.141-48.629-49.612-66.403-13.623-84.17 22.35-68.616 72.359-45.12 132.425c3.994 10.211 8.226 20.731 12.575 31.544l.006.016C14.284 280.389 74.791 430.812.497 597.46-63.33 740.626-177.98 771.032-301.06 752.118c-103.573-15.914-213.625-66.816-305.598-115.995l1.337.138a624.969 624.969 0 0 0 12.618 3.437c72.03 33.797 149.959 63.186 224.697 74.67 125.538 19.291 241.354-12.024 305.582-156.095 74.82-167.824 13.736-319.667-33.178-436.285l-.01-.023c-4.347-10.809-8.574-21.316-12.559-31.504-23.493-60.062-38.333-108.48-21.19-143.19 17.136-34.694 66.467-56.104 173.334-60.67l-4.07-5.781c-107.359 4.587-158.24 26.117-176.015 62.105-17.767 35.974-2.213 85.983 21.282 146.05 3.996 10.216 8.229 20.74 12.58 31.559C-55.425 236.937 5.082 387.361-69.213 554.009c-63.824 143.166-178.475 173.571-301.555 154.656-61.276-9.417-124.822-31.074-185.55-57.38 36.531 12.363 73.339 22.075 109.407 27.612 125.537 19.294 241.353-12.021 305.581-156.092 74.82-167.824 13.735-319.667-33.178-436.284l-.019-.047c-4.346-10.802-8.568-21.3-12.551-31.48-23.492-60.062-38.333-108.48-21.19-143.19 17.135-34.695 66.467-56.105 173.334-60.671l-4.07-5.781c-107.359 4.588-158.24 26.118-176.015 62.106-17.767 35.973-2.213 85.982 21.282 146.05 3.996 10.215 8.229 20.74 12.581 31.557 46.824 116.405 107.331 266.828 33.037 433.476-63.825 143.167-178.476 173.572-301.558 154.659-31.159-4.792-62.907-12.745-94.573-22.869 3.366.588 6.728 1.139 10.08 1.658 125.539 19.288 241.355-12.027 305.584-156.097 74.82-167.825 13.736-319.667-33.178-436.286l-.009-.023c-4.349-10.81-8.575-21.315-12.56-31.503-23.494-60.063-38.333-108.48-21.191-143.19 17.135-34.695 66.467-56.105 173.335-60.67l-4.069-5.781c-107.36 4.587-158.243 26.116-176.016 62.105-17.767 35.973-2.214 85.982 21.281 146.048 3.996 10.217 8.23 20.742 12.582 31.56 46.823 116.404 107.331 266.828 33.036 433.476-63.826 143.165-178.475 173.571-301.557 154.658-13.739-2.113-27.596-4.839-41.506-8.099 105.853 4.034 200.216-36.156 255.858-160.967 74.82-167.825 13.736-319.667-33.178-436.286l-.024-.059-.004-.011c-4.341-10.79-8.562-21.285-12.541-31.456-23.493-60.062-38.333-108.48-21.191-143.19 17.136-34.695 66.468-56.104 173.335-60.67l-4.07-5.781c-107.359 4.587-158.24 26.117-176.015 62.105-17.767 35.973-2.213 85.982 21.282 146.049 3.996 10.216 8.228 20.74 12.58 31.559 46.824 116.404 107.332 266.828 33.037 433.475-57.926 129.935-157.715 166.986-267.68 158.591a1112.039 1112.039 0 0 1-15.471-6.18c-1.157-.558-2.31-1.123-3.462-1.687 80.332-12.114 149.805-57.788 194.406-157.829 74.818-167.825 13.735-319.666-33.179-436.285l-.01-.024c-4.348-10.808-8.574-21.314-12.56-31.503-23.493-60.062-38.333-108.48-21.189-143.19 17.134-34.695 66.466-56.104 173.333-60.67l-4.069-5.781c-107.36 4.587-158.241 26.117-176.015 62.106-17.767 35.973-2.214 85.982 21.281 146.048 3.985 10.19 8.208 20.687 12.548 31.476l.009.022.017.042.008.02c46.822 116.403 107.331 266.827 33.036 433.475-45.321 101.658-116.268 146.462-197.663 157.126a1931.373 1931.373 0 0 1-32.693-16.706c54.738-22.868 101.513-67.165 134.598-141.377 74.82-167.825 13.735-319.667-33.179-436.285l-.023-.06-.006-.012c-4.34-10.79-8.562-21.284-12.54-31.455-23.493-60.063-38.332-108.48-21.19-143.19 17.135-34.695 66.466-56.105 173.333-60.671l-4.068-5.78c-107.361 4.586-158.242 26.116-176.016 62.105-17.767 35.973-2.214 85.982 21.281 146.049 3.996 10.216 8.23 20.74 12.582 31.559 46.824 116.404 107.331 266.827 33.037 433.476-33.441 75.008-80.831 119.062-136.079 141.293-15.956-8.437-31.404-16.86-46.227-25.081 33.106-25.447 61.725-61.94 84.088-112.104 74.819-167.826 13.736-319.667-33.178-436.286-4.351-10.817-8.581-21.332-12.569-31.527-23.494-60.062-38.334-108.481-21.19-143.19 17.134-34.695 66.466-56.104 173.333-60.671l-4.068-5.78c-107.361 4.586-158.242 26.116-176.016 62.106-17.767 35.972-2.214 85.981 21.281 146.048 3.986 10.19 8.208 20.687 12.548 31.477l.009.02.017.043.008.02c46.822 116.403 107.331 266.827 33.036 433.475-22.528 50.533-51.39 87.018-84.717 112.245-2.086-1.17-4.163-2.326-6.226-3.482l-1.098 4.289 3.545 1.991-.732.527-1.002.716c-28.094-14.464-54.842-29.105-79.617-42.994l-1.102 4.295c23.847 13.364 49.6 27.481 76.69 41.493a224.129 224.129 0 0 1-9.427 6.042c-55.232-24.899-107.686-53.107-153.416-78.744l-1.102 4.295c44.544 24.963 95.745 52.543 149.864 77.189a223.4 223.4 0 0 1-16.48 8.545c-81.493-29.991-160.777-71.985-226.279-108.697l-1.098 4.288c63.81 35.769 141.286 76.899 221.441 107.073a232.301 232.301 0 0 1-22.634 8.404c-105.288-27.891-212.41-83.889-296.7-131.139l-1.1 4.294c81.63 45.752 185.615 100.284 288.972 129.431a259.98 259.98 0 0 1-26.98 5.823 491.33 491.33 0 0 1-7.351-1.071c-123.33-18.953-255.851-87.511-356.091-143.694l-1.1 4.289c96.79 54.249 225.011 120.844 346.343 142.826-30.302 2.945-61.942 1.374-94.16-3.576-123.333-18.953-255.843-87.516-356.093-143.699l-1.1 4.294Zm636.946 139.193a1662.431 1662.431 0 0 1-10.597-4.886c-2.26.829-4.532 1.624-6.817 2.385a932.27 932.27 0 0 0 24.838 9.007c-2.672-1.493-5.324-2.974-7.952-4.448l.528-2.058Zm-59.247-35.253a2927.617 2927.617 0 0 0 33.529 18.365 1734.053 1734.053 0 0 1-34.973-17.309c.486-.355.966-.705 1.444-1.056Zm-5.439 3.88a220.452 220.452 0 0 1-8.809 5.79c15.096 6.684 30.387 13.094 45.79 19.118a244.625 244.625 0 0 0 8.097-2.655c-15.335-7.279-30.39-14.741-45.078-22.253Zm97.14 45.643-1.074.126a604.65 604.65 0 0 0 5.13 1.578 863.865 863.865 0 0 1-4.056-1.704Zm-12.923 1.245 1.674.553-1.352-.225-1.442-.249 1.12-.079Zm-43.904-15.817a933.576 933.576 0 0 0 28.828 10.669c-3.762.154-7.541.244-11.338.271a623.181 623.181 0 0 1-30.278-7.471c4.3-1.047 8.564-2.202 12.788-3.469Zm-53.732-22.479c14.276 6.384 28.742 12.544 43.328 18.382a256.944 256.944 0 0 1-15.713 3.794c-14.298-4.201-28.609-8.877-42.864-13.941a223.884 223.884 0 0 0 15.249-8.235Zm-21.115 11.012a231.962 231.962 0 0 1-19.872 7.974c12.537 3.057 25.034 5.691 37.451 7.841a288.73 288.73 0 0 0 21.055-2.747 861.277 861.277 0 0 1-38.634-13.068Zm52.169 17.144c-3.843.777-7.719 1.48-11.618 2.098 9.571 1.186 19.079 2.062 28.509 2.586a706.974 706.974 0 0 1-16.891-4.684Zm-80.724-6.318a630.435 630.435 0 0 0 25.984 6.22c-14.466.432-29.187-.07-44.083-1.392a253.677 253.677 0 0 0 18.099-4.828Zm548.066 198.16c-125.287-19.255-259.537-88.823-359.954-145.109l1.102-4.294c100.24 56.189 232.761 124.747 356.09 143.7C-117.114 821.082-2.464 790.676 61.362 647.51c74.295-166.648 13.787-317.072-33.037-433.476l-.02-.051-.024-.057c-4.336-10.781-8.554-21.269-12.537-31.451C-7.75 122.409-23.305 72.399-5.538 36.426 12.236.437 63.118-21.09 170.478-25.679l4.07 5.781C67.68-15.332 18.348 6.078 1.213 40.772c-17.142 34.71-2.302 83.128 21.19 143.19 3.979 10.17 8.197 20.656 12.537 31.445l.03.073c46.914 116.618 108 268.469 33.18 436.294C3.923 795.844-111.893 827.16-237.433 807.871Zm-306.506-90.185c100.42 56.278 234.671 125.847 359.959 145.102 125.536 19.292 241.352-12.023 305.581-156.093 74.819-167.825 13.736-319.667-33.178-436.286-4.352-10.817-8.582-21.331-12.57-31.526-23.493-60.063-38.332-108.48-21.19-143.19 17.135-34.695 66.466-56.105 173.335-60.67l-4.07-5.781C116.567 33.828 65.686 55.358 47.912 91.347 30.145 127.32 45.7 177.33 69.193 237.396c3.99 10.201 8.219 20.711 12.563 31.512l.018.046c46.824 116.404 107.333 266.829 33.038 433.477-63.826 143.166-178.476 173.571-301.558 154.66-123.33-18.953-255.848-87.517-356.091-143.7l-1.102 4.295Zm407.966 203.282c-125.287-19.254-259.538-88.824-359.955-145.109l1.102-4.294c100.241 56.189 232.762 124.747 356.091 143.7 123.08 18.914 237.731-11.493 301.557-154.659 74.295-166.648 13.787-317.071-33.037-433.476l-.015-.036-.009-.024c-4.344-10.797-8.568-21.302-12.556-31.499-23.495-60.066-39.05-110.076-21.283-146.049 17.775-35.988 68.656-57.517 176.016-62.105l4.069 5.781c-106.867 4.566-156.198 25.976-173.334 60.67-17.143 34.71-2.302 83.128 21.191 143.19 3.982 10.182 8.204 20.679 12.55 31.48l.015.038.004.009c46.914 116.618 107.997 268.461 33.178 436.286-64.228 144.07-180.043 175.383-305.584 156.097Zm-315.375-85.014c100.42 56.278 234.667 125.854 359.958 145.102 125.536 19.294 241.351-12.022 305.581-156.092 74.819-167.825 13.735-319.667-33.179-436.285l-.019-.047c-4.344-10.801-8.568-21.299-12.55-31.479-23.493-60.064-38.334-108.482-21.19-143.191 17.134-34.695 66.466-56.104 173.334-60.67l-4.07-5.782c-107.36 4.588-158.241 26.118-176.015 62.107-17.767 35.973-2.214 85.982 21.281 146.048 3.988 10.195 8.212 20.697 12.555 31.492l.006.016.018.046c46.824 116.404 107.334 266.833 33.039 433.481C143.576 963.866 28.924 994.274-94.156 975.359c-123.33-18.953-255.847-87.517-356.09-143.699l-1.102 4.294Zm402.846 206.116c-125.287-19.26-259.538-88.826-359.955-145.112l1.099-4.287c100.243 56.182 232.764 124.739 356.094 143.689 123.08 18.92 237.731-11.49 301.556-154.652 74.295-166.649 13.787-317.073-33.037-433.477l-.014-.036-.025-.061-.021-.053c-4.33-10.766-8.543-21.24-12.521-31.409-23.495-60.066-39.048-110.075-21.282-146.049 17.774-35.988 68.656-57.518 176.016-62.105l4.069 5.781c-106.867 4.566-156.199 25.975-173.335 60.67-17.142 34.71-2.302 83.128 21.191 143.19 3.987 10.193 8.216 20.704 12.566 31.518 46.914 116.619 108.001 268.469 33.183 436.295-64.23 144.068-180.048 175.388-305.584 156.098Zm-317.352-83.963C-265.438 1014.39-131.187 1083.96-5.9 1103.22c125.536 19.29 241.354-12.03 305.583-156.099 74.82-167.825 13.735-319.668-33.179-436.286l-.007-.016-.035-.087-.024-.061c-4.328-10.76-8.535-21.219-12.503-31.363-23.493-60.062-38.333-108.48-21.19-143.19 17.135-34.694 66.467-56.104 173.334-60.67l-4.07-5.781c-107.36 4.587-158.241 26.117-176.015 62.105-17.767 35.974-2.213 85.983 21.281 146.05 3.997 10.216 8.23 20.74 12.582 31.559 46.823 116.403 107.331 266.827 33.037 433.475C229.068 1086.02 114.419 1116.43-8.662 1097.51c-123.329-18.95-255.851-87.51-356.094-143.691l-1.098 4.288ZM37.482 1163.96c-125.287-19.25-259.538-88.82-359.958-145.1l1.102-4.29c100.244 56.18 232.76 124.74 356.09 143.7 123.085 18.9 237.733-11.5 301.558-154.66 74.295-166.653 13.787-317.076-33.036-433.48-4.352-10.818-8.585-21.343-12.581-31.56-23.495-60.066-39.049-110.075-21.282-146.048 17.774-35.989 68.655-57.519 176.016-62.106l4.069 5.781c-106.867 4.566-156.199 25.976-173.335 60.671-17.142 34.71-2.302 83.128 21.191 143.189 3.986 10.191 8.214 20.7 12.563 31.511l.006.016c46.914 116.619 107.998 268.461 33.179 436.286-64.228 144.07-180.045 175.39-305.582 156.09Zm-315.036-85.19c100.42 56.28 234.671 125.85 359.959 145.1 125.536 19.29 241.353-12.02 305.581-156.09 74.819-167.827 13.736-319.67-33.179-436.288-4.352-10.817-8.581-21.331-12.569-31.526-23.493-60.063-38.333-108.481-21.191-143.191 17.136-34.694 66.468-56.104 173.335-60.67l-4.07-5.781c-107.36 4.587-158.241 26.117-176.015 62.105-17.767 35.974-2.213 85.983 21.281 146.05 3.99 10.201 8.217 20.709 12.562 31.51l.009.023.011.026c46.824 116.404 107.331 266.827 33.037 433.472-63.826 143.17-178.478 173.58-301.559 154.66-123.33-18.95-255.846-87.51-356.09-143.7l-1.102 4.3Zm406.946 203.86c-125.287-19.26-259.538-88.83-359.955-145.11l1.099-4.29c100.243 56.18 232.765 124.74 356.093 143.69 123.081 18.92 237.73-11.49 301.556-154.65 74.295-166.652 13.787-317.075-33.037-433.479-4.35-10.818-8.584-21.343-12.58-31.559-23.495-60.067-39.049-110.076-21.282-146.049 17.774-35.989 68.656-57.518 176.016-62.105l4.069 5.781c-106.867 4.566-156.199 25.975-173.334 60.67-17.143 34.71-2.303 83.127 21.19 143.19 3.989 10.195 8.218 20.709 12.57 31.527 46.913 116.618 107.997 268.46 33.177 436.284-64.228 144.07-180.045 175.39-305.582 156.1Zm-310.558-87.74C-80.75 1251.18 53.501 1320.74 178.788 1340c125.536 19.29 241.353-12.03 305.583-156.1 74.82-167.82 13.736-319.663-33.178-436.282-4.351-10.817-8.582-21.331-12.569-31.526-23.493-60.062-38.333-108.48-21.191-143.19 17.135-34.695 66.467-56.105 173.335-60.67l-4.069-5.781c-107.36 4.586-158.243 26.116-176.016 62.105-17.767 35.973-2.214 85.982 21.281 146.048 3.995 10.213 8.226 20.733 12.577 31.548l.004.012c46.824 116.404 107.332 266.826 33.037 433.476-63.827 143.17-178.475 173.57-301.556 154.66-123.33-18.96-255.85-87.51-356.094-143.7l-1.098 4.29Z" clip-rule="evenodd"/>
  </g>
  <g filter="url(#b)">
    <path fill="#855B9A" fill-opacity=".58" fill-rule="evenodd" d="M444.143 777.511c100.416 56.284 234.667 125.854 359.958 145.102 39.188 6.027 77.432 7.118 113.455 1.381 29.243 3.972 57.9 5.104 85.444 2.592 2.89.498 5.77.968 8.65 1.41 22.27 3.42 44.23 5.25 65.66 5.138 11.16 2.438 22.29 4.529 33.34 6.23 3.28.505 6.55.972 9.81 1.407 94.55 51.172 210.71 106.299 320.05 123.099 125.54 19.29 241.36-12.03 305.59-156.096 74.82-167.824 13.73-319.667-33.18-436.285-4.35-10.817-8.58-21.331-12.57-31.527-23.49-60.062-38.33-108.48-21.19-143.19 17.13-34.695 66.47-56.105 173.33-60.669l-4.06-5.782c-107.36 4.588-158.25 26.117-176.02 62.105-17.77 35.974-2.21 85.982 21.28 146.049 3.99 10.211 8.23 20.731 12.58 31.543v.016c46.83 116.404 107.33 266.828 33.04 433.476-63.83 143.17-178.48 173.57-301.56 154.66-103.57-15.92-213.62-66.819-305.6-115.997l1.34.137c4.2 1.194 8.41 2.338 12.62 3.437 72.03 33.798 149.96 63.183 224.7 74.673 125.53 19.29 241.35-12.03 305.58-156.097 74.82-167.825 13.73-319.667-33.18-436.286l-.01-.023c-4.35-10.809-8.57-21.315-12.56-31.503-23.49-60.062-38.33-108.48-21.19-143.19 17.14-34.695 66.47-56.104 173.33-60.67l-4.06-5.781c-107.36 4.587-158.25 26.116-176.02 62.105-17.77 35.973-2.21 85.982 21.28 146.049 4 10.216 8.23 20.74 12.58 31.559 46.83 116.404 107.33 266.828 33.04 433.475-63.83 143.162-178.48 173.572-301.56 154.652-61.27-9.41-124.82-31.07-185.55-57.376 36.53 12.364 73.34 22.075 109.41 27.612 125.54 19.294 241.35-12.021 305.58-156.091 74.82-167.825 13.74-319.667-33.18-436.285l-.01-.047c-4.35-10.801-8.57-21.299-12.56-31.48-23.49-60.062-38.33-108.48-21.19-143.19 17.14-34.694 66.47-56.104 173.34-60.67l-4.07-5.781c-107.36 4.587-158.24 26.117-176.02 62.105-17.76 35.973-2.21 85.983 21.29 146.05 3.99 10.216 8.22 20.74 12.58 31.558 46.82 116.404 107.33 266.828 33.03 433.475-63.82 143.167-178.47 173.572-301.56 154.66-31.15-4.792-62.9-12.746-94.57-22.87 3.37.588 6.73 1.14 10.08 1.658 125.54 19.288 241.36-12.027 305.59-156.097 74.82-167.824 13.73-319.667-33.18-436.285l-.01-.023c-4.35-10.81-8.58-21.316-12.56-31.504-23.49-60.062-38.33-108.48-21.19-143.19 17.13-34.695 66.46-56.104 173.33-60.67l-4.07-5.781c-107.36 4.588-158.24 26.117-176.01 62.105-17.77 35.974-2.22 85.982 21.28 146.049 3.99 10.216 8.23 20.741 12.58 31.559 46.82 116.405 107.33 266.828 33.04 433.476-63.83 143.166-178.48 173.572-301.56 154.658-13.74-2.113-27.6-4.838-41.51-8.099 105.86 4.034 200.22-36.155 255.86-160.967 74.82-167.824 13.74-319.667-33.18-436.285l-.02-.059v-.012c-4.35-10.79-8.57-21.285-12.54-31.456-23.5-60.062-38.34-108.48-21.2-143.19 17.14-34.694 66.47-56.104 173.34-60.67l-4.07-5.781c-107.36 4.587-158.24 26.117-176.02 62.105-17.76 35.973-2.21 85.983 21.29 146.049 3.99 10.217 8.22 20.741 12.58 31.559 46.82 116.404 107.33 266.828 33.03 433.476-57.92 129.934-157.71 166.986-267.68 158.59a1132.05 1132.05 0 0 1-15.47-6.179c-1.16-.559-2.31-1.123-3.46-1.687 80.33-12.115 149.8-57.789 194.41-157.829 74.81-167.825 13.73-319.667-33.18-436.285l-.01-.024c-4.35-10.809-8.58-21.315-12.56-31.504-23.5-60.061-38.34-108.48-21.19-143.189 17.13-34.695 66.46-56.105 173.33-60.671l-4.07-5.78c-107.36 4.586-158.24 26.116-176.01 62.105-17.77 35.973-2.22 85.982 21.28 146.049 3.98 10.19 8.21 20.687 12.55 31.476v.022l.02.042.01.019c46.82 116.403 107.33 266.827 33.04 433.476-45.33 101.658-116.27 146.462-197.67 157.125a1946.39 1946.39 0 0 1-32.69-16.706c54.74-22.868 101.51-67.165 134.6-141.377 74.82-167.825 13.73-319.666-33.18-436.285l-.02-.059-.01-.013c-4.34-10.789-8.56-21.284-12.54-31.454-23.49-60.063-38.33-108.481-21.19-143.191 17.13-34.695 66.47-56.104 173.33-60.67l-4.06-5.78c-107.37 4.586-158.25 26.116-176.02 62.105-17.77 35.973-2.21 85.982 21.28 146.048 4 10.216 8.23 20.741 12.58 31.559 46.83 116.404 107.33 266.828 33.04 433.476-33.44 75.009-80.83 119.063-136.08 141.293-15.96-8.436-31.4-16.859-46.23-25.081 33.11-25.447 61.73-61.94 84.09-112.104 74.82-167.825 13.74-319.667-33.18-436.286-4.35-10.817-8.58-21.331-12.57-31.526-23.49-60.063-38.33-108.481-21.19-143.191 17.14-34.695 66.47-56.104 173.34-60.67l-4.07-5.78c-107.36 4.586-158.24 26.116-176.02 62.105-17.76 35.973-2.21 85.982 21.28 146.048 3.99 10.191 8.21 20.687 12.55 31.477l.01.021.02.042.01.02c46.82 116.403 107.33 266.828 33.03 433.476-22.53 50.532-51.39 87.017-84.72 112.245-2.08-1.17-4.16-2.327-6.22-3.482l-1.1 4.288 3.55 1.991-.74.527-1 .716c-28.092-14.463-54.84-29.104-79.615-42.993l-1.102 4.294c23.847 13.365 49.6 27.481 76.687 41.493-3.1 2.103-6.25 4.115-9.424 6.043-55.232-24.9-107.686-53.108-153.416-78.744l-1.102 4.294c44.544 24.964 95.745 52.544 149.864 77.19a224.173 224.173 0 0 1-16.48 8.545c-81.493-29.991-160.777-71.985-226.279-108.698l-1.098 4.289c63.81 35.768 141.286 76.899 221.441 107.072a231.783 231.783 0 0 1-22.634 8.404c-105.288-27.891-212.408-83.889-296.703-131.139l-1.101 4.295c81.63 45.752 185.619 100.283 288.976 129.43a259.462 259.462 0 0 1-26.98 5.823 478.678 478.678 0 0 1-7.351-1.071c-123.33-18.953-255.851-87.511-356.094-143.693l-1.098 4.288c96.789 54.249 225.012 120.844 346.344 142.826-30.302 2.945-61.942 1.375-94.16-3.575-123.33-18.953-255.847-87.517-356.09-143.7l-1.102 4.295Zm636.947 139.193c-3.55-1.619-7.08-3.249-10.6-4.887-2.26.829-4.53 1.624-6.82 2.385a932.43 932.43 0 0 0 24.84 9.008c-2.67-1.494-5.32-2.975-7.95-4.448l.53-2.058Zm-59.25-35.254a2961.916 2961.916 0 0 0 33.53 18.366 1731.24 1731.24 0 0 1-34.97-17.309c.48-.356.96-.705 1.44-1.057Zm-5.44 3.881c-2.9 2.008-5.84 3.941-8.81 5.789 15.1 6.684 30.39 13.094 45.79 19.119 2.72-.84 5.42-1.724 8.1-2.656-15.34-7.278-30.39-14.74-45.08-22.252Zm97.14 45.642-1.07.126a627.9 627.9 0 0 0 5.13 1.578 687.31 687.31 0 0 1-4.06-1.704Zm-12.92 1.246 1.67.552-1.35-.225-1.44-.248 1.12-.079Zm-43.9-15.818a928.38 928.38 0 0 0 28.82 10.67c-3.76.153-7.54.243-11.33.27a620.67 620.67 0 0 1-30.28-7.471c4.3-1.046 8.56-2.202 12.79-3.469Zm-53.74-22.478c14.28 6.383 28.75 12.543 43.33 18.382a257.767 257.767 0 0 1-15.71 3.794c-14.3-4.202-28.61-8.878-42.866-13.942a223.094 223.094 0 0 0 15.246-8.234Zm-21.112 11.011a231.97 231.97 0 0 1-19.872 7.975c12.537 3.057 25.034 5.69 37.451 7.84a288.746 288.746 0 0 0 21.053-2.746 863.365 863.365 0 0 1-38.632-13.069Zm52.172 17.145c-3.85.776-7.72 1.479-11.62 2.098 9.57 1.185 19.08 2.062 28.51 2.585a703.76 703.76 0 0 1-16.89-4.683Zm-80.727-6.319a632.082 632.082 0 0 0 25.984 6.221c-14.466.431-29.187-.07-44.083-1.393a253.147 253.147 0 0 0 18.099-4.828Zm548.067 198.16c-125.29-19.25-259.54-88.82-359.96-145.108l1.11-4.295c100.24 56.193 232.76 124.743 356.09 143.703 123.08 18.91 237.73-11.49 301.55-154.66 74.3-166.649 13.79-317.072-33.03-433.476l-.02-.051-.03-.058c-4.33-10.78-8.55-21.268-12.53-31.451-23.5-60.066-39.05-110.075-21.29-146.048 17.78-35.989 68.66-57.518 176.02-62.105l4.07 5.78c-106.87 4.567-156.2 25.976-173.33 60.671-17.15 34.71-2.31 83.128 21.19 143.189 3.97 10.17 8.19 20.656 12.53 31.445l.03.073c46.92 116.619 108 268.47 33.18 436.295-64.23 144.066-180.04 175.386-305.58 156.096Zm-306.51-90.18c100.42 56.27 234.67 125.84 359.96 145.1 125.54 19.29 241.35-12.03 305.58-156.1 74.82-167.821 13.74-319.663-33.18-436.281-4.35-10.817-8.58-21.331-12.56-31.527-23.5-60.062-38.34-108.48-21.19-143.19 17.13-34.695 66.46-56.104 173.33-60.67l-4.07-5.781c-107.36 4.587-158.24 26.117-176.02 62.106-17.76 35.973-2.21 85.982 21.29 146.048 3.99 10.202 8.21 20.711 12.56 31.513l.02.045c46.82 116.404 107.33 266.829 33.03 433.477-63.82 143.17-178.47 173.57-301.55 154.66-123.33-18.95-255.85-87.52-356.09-143.7l-1.11 4.3Zm407.97 203.28c-125.29-19.26-259.54-88.83-359.96-145.11l1.11-4.3c100.24 56.19 232.76 124.75 356.09 143.7 123.08 18.92 237.73-11.49 301.55-154.65 74.3-166.652 13.79-317.076-33.03-433.48l-.02-.036-.01-.025c-4.34-10.797-8.57-21.301-12.55-31.498-23.5-60.067-39.05-110.076-21.29-146.049 17.78-35.988 68.66-57.518 176.02-62.105l4.07 5.78c-106.87 4.567-156.2 25.976-173.34 60.671-17.14 34.71-2.3 83.128 21.2 143.19 3.98 10.181 8.2 20.678 12.55 31.48l.01.037.01.01c46.91 116.618 107.99 268.46 33.17 436.285-64.23 144.07-180.04 175.38-305.58 156.1ZM1287.46 1142c100.42 56.28 234.67 125.86 359.96 145.11 125.54 19.29 241.35-12.03 305.58-156.1 74.82-167.822 13.74-319.663-33.18-436.281l-.01-.048c-4.35-10.801-8.57-21.299-12.55-31.479-23.5-60.063-38.34-108.481-21.2-143.19 17.14-34.695 66.47-56.105 173.34-60.67l-4.07-5.782c-107.36 4.587-158.24 26.117-176.02 62.106-17.76 35.973-2.21 85.982 21.29 146.048 3.98 10.195 8.21 20.698 12.55 31.493l.01.016.01.045c46.83 116.404 107.34 266.833 33.04 433.482-63.82 143.17-178.47 173.57-301.55 154.66-123.33-18.95-255.85-87.52-356.09-143.7l-1.11 4.29Zm402.85 206.12c-125.29-19.26-259.54-88.83-359.96-145.11l1.1-4.29c100.25 56.18 232.77 124.74 356.1 143.69 123.08 18.92 237.73-11.49 301.55-154.65 74.3-166.65 13.79-317.075-33.03-433.479l-.02-.036-.02-.061-.02-.053c-4.33-10.766-8.55-21.24-12.52-31.409-23.5-60.067-39.05-110.076-21.29-146.049 17.78-35.988 68.66-57.518 176.02-62.106l4.07 5.782c-106.87 4.565-156.2 25.975-173.34 60.669-17.14 34.71-2.3 83.128 21.2 143.191 3.98 10.193 8.21 20.704 12.56 31.518 46.92 116.618 108 268.473 33.18 436.293-64.23 144.07-180.04 175.39-305.58 156.1Zm-317.35-83.96c100.41 56.28 234.66 125.85 359.95 145.1 125.54 19.3 241.36-12.02 305.58-156.09 74.82-167.82 13.74-319.667-33.17-436.286l-.01-.015-.04-.088-.02-.061c-4.33-10.759-8.54-21.218-12.5-31.363-23.5-60.061-38.34-108.479-21.19-143.189 17.13-34.695 66.46-56.104 173.33-60.67l-4.07-5.781c-107.36 4.587-158.24 26.116-176.01 62.105-17.77 35.973-2.22 85.983 21.28 146.049 3.99 10.216 8.23 20.741 12.58 31.559 46.82 116.404 107.33 266.83 33.04 433.48-63.83 143.16-178.48 173.57-301.56 154.65-123.33-18.95-255.85-87.51-356.09-143.69l-1.1 4.29Zm403.33 205.85c-125.28-19.25-259.53-88.82-359.95-145.1l1.1-4.29c100.24 56.18 232.76 124.74 356.09 143.69 123.08 18.91 237.73-11.49 301.56-154.66 74.29-166.64 13.78-317.067-33.04-433.471-4.35-10.818-8.59-21.343-12.58-31.559-23.5-60.067-39.05-110.076-21.28-146.049 17.77-35.988 68.65-57.518 176.01-62.105l4.07 5.781c-106.87 4.566-156.2 25.975-173.33 60.67-17.15 34.71-2.3 83.128 21.19 143.19 3.98 10.19 8.21 20.699 12.56 31.51l.01.017c46.91 116.618 108 268.456 33.18 436.286-64.23 144.07-180.05 175.38-305.59 156.09Zm-315.03-85.19c100.42 56.28 234.67 125.85 359.96 145.1 125.53 19.29 241.35-12.02 305.58-156.09 74.82-167.83 13.73-319.67-33.18-436.289-4.35-10.816-8.58-21.33-12.57-31.526-23.49-60.062-38.33-108.48-21.19-143.19 17.13-34.695 66.47-56.104 173.33-60.67l-4.07-5.781c-107.36 4.587-158.24 26.117-176.01 62.105-17.77 35.973-2.21 85.983 21.28 146.049 3.99 10.201 8.22 20.709 12.56 31.51l.01.023.01.026c46.83 116.403 107.33 266.823 33.04 433.473-63.83 143.17-178.48 173.58-301.56 154.66-123.33-18.95-255.85-87.51-356.09-143.7l-1.1 4.3Zm406.94 203.86c-125.28-19.26-259.53-88.83-359.95-145.11l1.1-4.29c100.24 56.18 232.76 124.74 356.09 143.69 123.08 18.92 237.73-11.49 301.56-154.65 74.29-166.65 13.78-317.08-33.04-433.479-4.35-10.819-8.58-21.343-12.58-31.559-23.5-60.067-39.05-110.076-21.28-146.049 17.77-35.989 68.65-57.519 176.01-62.106l4.07 5.781c-106.86 4.566-156.2 25.975-173.33 60.67-17.14 34.71-2.3 83.128 21.19 143.19 3.99 10.196 8.22 20.71 12.57 31.528 46.91 116.614 108 268.464 33.18 436.284-64.23 144.07-180.05 175.39-305.59 156.1Zm-310.55-87.74c100.41 56.29 234.66 125.85 359.95 145.11 125.54 19.29 241.35-12.03 305.58-156.1 74.82-167.82 13.74-319.66-33.18-436.28-4.35-10.82-8.58-21.33-12.56-31.53-23.5-60.061-38.34-108.479-21.19-143.189 17.13-34.695 66.46-56.105 173.33-60.67l-4.07-5.781c-107.36 4.587-158.24 26.117-176.02 62.105-17.76 35.973-2.21 85.982 21.29 146.045 3.99 10.22 8.22 20.74 12.57 31.55l.01.01c46.82 116.41 107.33 266.83 33.03 433.48-63.82 143.17-178.47 173.57-301.55 154.66-123.33-18.96-255.85-87.52-356.1-143.7l-1.09 4.29Z" clip-rule="evenodd"/>
  </g>
  <defs>
    <filter id="a" width="1925.44" height="1602.13" x="-1314.67" y="-236.981" color-interpolation-filters="sRGB" filterUnits="userSpaceOnUse">
      <feFlood flood-opacity="0" result="BackgroundImageFix"/>
      <feBlend in="SourceGraphic" in2="BackgroundImageFix" result="shape"/>
      <feGaussianBlur result="effect1_foregroundBlur_315_1769" stdDeviation="10"/>
    </filter>
    <filter id="b" width="1925.44" height="1602.13" x="424.143" y="69.069" color-interpolation-filters="sRGB" filterUnits="userSpaceOnUse">
      <feFlood flood-opacity="0" result="BackgroundImageFix"/>
      <feBlend in="SourceGraphic" in2="BackgroundImageFix" result="shape"/>
      <feGaussianBlur result="effect1_foregroundBlur_315_1769" stdDeviation="10"/>
    </filter>
  </defs>
</svg>
